<svg width="20" height="18" viewBox="0 0 20 18" fill="none" xmlns="http://www.w3.org/2000/svg">
<path d="M0.350701 8.37429L4.9488 10.0888L6.74126 15.8559C6.8192 16.2456 7.2868 16.3235 7.59854 16.0897L10.1703 13.9855C10.4041 13.7517 10.7938 13.7517 11.1055 13.9855L15.7036 17.3367C16.0154 17.5705 16.483 17.4146 16.5609 17.0249L19.99 0.658869C20.0679 0.269201 19.6782 -0.120463 19.2886 0.0354042L0.350701 7.36116C-0.1169 7.51703 -0.1169 8.21843 0.350701 8.37429ZM6.50747 9.23156L15.5477 3.69828C15.7036 3.62035 15.8595 3.85415 15.7036 3.93208L8.29993 10.8682C8.06613 11.102 7.83233 11.4137 7.83233 11.8034L7.59854 13.6738C7.59854 13.9076 7.20886 13.9855 7.13093 13.6738L6.19572 10.2447C5.96192 9.85503 6.1178 9.38743 6.50747 9.23156Z" fill="white"/>
</svg>
