<svg width="17" height="17" viewBox="0 0 17 17" fill="none" xmlns="http://www.w3.org/2000/svg">
<path d="M14.5808 0.000213623H2.41923C1.04615 0.000213623 0 1.04637 0 2.41944V14.581C0 15.9541 1.04615 17.0002 2.41923 17.0002H14.5808C15.9538 17.0002 17 15.9541 17 14.581V2.41944C17 1.04637 15.9538 0.000213623 14.5808 0.000213623ZM8.5 13.6002C11.3115 13.6002 13.6 11.3771 13.6 8.69637C13.6 8.23867 13.5346 7.7156 13.4038 7.32329H14.8423V14.2541C14.8423 14.581 14.5808 14.9079 14.1885 14.9079H2.81154C2.48462 14.9079 2.15769 14.6464 2.15769 14.2541V7.25791H3.66154C3.53077 7.7156 3.46539 8.17329 3.46539 8.63098C3.4 11.3771 5.68846 13.6002 8.5 13.6002ZM8.5 11.6387C6.66923 11.6387 5.23077 10.2002 5.23077 8.43483C5.23077 6.66945 6.66923 5.23098 8.5 5.23098C10.3308 5.23098 11.7692 6.66945 11.7692 8.43483C11.7692 10.2656 10.3308 11.6387 8.5 11.6387ZM14.7769 4.64252C14.7769 5.03483 14.45 5.36175 14.0577 5.36175H12.2269C11.8346 5.36175 11.5077 5.03483 11.5077 4.64252V2.87714C11.5077 2.48483 11.8346 2.15791 12.2269 2.15791H14.0577C14.45 2.15791 14.7769 2.48483 14.7769 2.87714V4.64252Z" fill="white"/>
</svg>
