<svg width="21" height="13" viewBox="0 0 21 13" fill="none" xmlns="http://www.w3.org/2000/svg">
<path d="M20.806 11.115C20.806 11.032 20.723 11.032 20.723 10.9489C20.3909 10.2848 19.6437 9.45453 18.6474 8.54128C18.1493 8.12616 17.9002 7.79406 17.7342 7.62802C17.4851 7.29593 17.4851 7.04687 17.5681 6.71477C17.6511 6.46571 17.9832 6.05058 18.5644 5.30337C18.8965 4.88826 19.0625 4.6392 19.3116 4.39013C20.5569 2.72967 21.1381 1.65037 20.972 1.15223L20.889 1.06921C20.806 0.986189 20.723 0.903169 20.5569 0.903169C20.3909 0.820146 20.1418 0.820146 19.8928 0.903169H16.7379C16.6549 0.903169 16.6549 0.903169 16.4888 0.903169C16.4058 0.903169 16.3228 0.903169 16.3228 0.903169H16.2398H16.1567L16.0737 0.986184C15.9907 1.06921 15.9907 1.0692 15.9907 1.15223C15.6586 2.06548 15.2435 2.81269 14.8284 3.64292C14.5793 4.05803 14.3302 4.47315 14.0812 4.80524C13.8321 5.13734 13.666 5.3864 13.5 5.55245C13.3339 5.71849 13.1679 5.80151 13.0849 5.96756C13.0018 6.05058 12.8358 6.13361 12.8358 6.05059C12.7528 6.05059 12.6698 6.05058 12.6698 5.96756C12.5867 5.88454 12.5037 5.80151 12.4207 5.71849C12.3377 5.63547 12.3377 5.46942 12.2546 5.30337C12.2546 5.13733 12.2546 4.97128 12.2546 4.88826C12.2546 4.80524 12.2546 4.55618 12.2546 4.39013C12.2546 4.14106 12.2546 3.97501 12.2546 3.89199C12.2546 3.64292 12.2546 3.31083 12.2546 2.97874C12.2546 2.64665 12.2546 2.39757 12.2546 2.23153C12.2546 2.06548 12.2546 1.81642 12.2546 1.65037C12.2546 1.4013 12.2546 1.23525 12.2546 1.15223C12.2546 1.0692 12.1716 0.903164 12.1716 0.820141C12.0886 0.737118 12.0056 0.654093 11.9226 0.57107C11.8395 0.488047 11.6735 0.488049 11.5905 0.405026C11.1754 0.322004 10.6772 0.238983 10.0961 0.238983C8.7677 0.238983 7.85444 0.322009 7.52235 0.488054C7.3563 0.571077 7.19026 0.654095 7.10723 0.820141C6.94119 0.986187 6.94118 1.06921 7.02421 1.06921C7.43932 1.15224 7.77142 1.31827 7.93746 1.56734L8.02049 1.7334C8.10351 1.81642 8.1035 1.98246 8.18652 2.23153C8.26954 2.4806 8.26955 2.72967 8.26955 3.06176C8.26955 3.5599 8.26955 4.05804 8.26955 4.39013C8.26955 4.80524 8.18652 5.05431 8.18652 5.30337C8.18652 5.55244 8.10351 5.71849 8.02049 5.80152C7.93747 5.96756 7.93746 6.05059 7.85443 6.05059C7.85443 6.05059 7.85443 6.1336 7.77141 6.1336C7.68838 6.1336 7.60537 6.21663 7.43932 6.21663C7.3563 6.21663 7.19026 6.13361 7.10723 6.05059C6.94119 5.96757 6.77514 5.80152 6.69212 5.63547C6.52607 5.46943 6.36002 5.22035 6.19398 4.88826C6.02793 4.55617 5.77885 4.22408 5.61281 3.72594L5.44678 3.39386C5.36375 3.22781 5.19771 2.89571 5.03166 2.4806C4.86561 2.06549 4.69956 1.7334 4.53352 1.31828C4.4505 1.15224 4.36748 1.06921 4.28446 0.986184H4.20143C4.20143 0.986184 4.1184 0.903169 4.03538 0.903169C3.95235 0.903169 3.86934 0.820141 3.78632 0.820141H0.797487C0.465395 0.820141 0.299352 0.903162 0.216329 0.986184L0.133301 1.06921C0.133301 1.06921 0.133301 1.15223 0.133301 1.23526C0.133301 1.31828 0.133306 1.4013 0.216329 1.56734C0.631443 2.56362 1.12958 3.5599 1.62772 4.55617C2.12585 5.46943 2.624 6.29966 2.95609 6.88082C3.3712 7.46198 3.70329 8.04314 4.1184 8.54128C4.53352 9.03941 4.78258 9.3715 4.8656 9.53755C5.03165 9.70359 5.11467 9.78661 5.19769 9.86964L5.44678 10.1187C5.61282 10.2848 5.86189 10.5338 6.19398 10.7829C6.52607 11.032 6.94118 11.281 7.35629 11.5301C7.77141 11.7792 8.26956 11.9452 8.76769 12.1113C9.34885 12.2773 9.84698 12.3603 10.3451 12.2773H11.5905C11.8395 12.2773 12.0056 12.1943 12.1716 12.0282L12.2546 11.9452C12.2546 11.8622 12.3377 11.8622 12.3377 11.7792C12.3377 11.6961 12.3377 11.6131 12.3377 11.4471C12.3377 11.115 12.3377 10.8659 12.4207 10.6168C12.5037 10.3678 12.5037 10.2017 12.5868 10.0357C12.6698 9.86965 12.7528 9.78661 12.8358 9.70359C12.9188 9.62057 13.0019 9.53755 13.0019 9.53755H13.0849C13.2509 9.45453 13.5 9.53755 13.666 9.70359C13.9151 9.86964 14.1642 10.1187 14.3302 10.3678C14.4963 10.6168 14.7453 10.8659 15.0774 11.198C15.4095 11.5301 15.6586 11.7792 15.8246 11.8622L16.0737 12.0282C16.2397 12.1113 16.4058 12.1943 16.6549 12.2773C16.9039 12.3603 17.07 12.3603 17.236 12.3603L20.0588 12.2773C20.3079 12.2773 20.5569 12.1943 20.723 12.1113C20.889 12.0282 20.972 11.9452 20.972 11.7792C20.972 11.6961 20.972 11.5301 20.972 11.4471C20.806 11.281 20.806 11.198 20.806 11.115Z" fill="white"/>
</svg>
