<svg width="40" height="40" viewBox="0 0 40 40" fill="none" xmlns="http://www.w3.org/2000/svg">
<circle cx="20" cy="20" r="20" transform="matrix(-1 0 0 1 40 0)" fill="#2B7AF1"/>
<path d="M22.7176 11.6872C22.8078 11.5918 22.8783 11.4795 22.9251 11.3567C22.972 11.234 22.9941 11.1033 22.9904 10.972C22.9867 10.8407 22.9572 10.7114 22.9035 10.5915C22.8498 10.4716 22.773 10.3635 22.6776 10.2732C22.5821 10.183 22.4698 10.1125 22.3471 10.0657C22.2243 10.0189 22.0936 9.99669 21.9623 10.0004C21.831 10.0041 21.7017 10.0337 21.5818 10.0873C21.4619 10.141 21.3538 10.2178 21.2636 10.3132L12.7636 19.3132C12.588 19.4989 12.4902 19.7447 12.4902 20.0002C12.4902 20.2558 12.588 20.5016 12.7636 20.6872L21.2636 29.6882C21.3532 29.7858 21.4613 29.8646 21.5816 29.92C21.702 29.9754 21.8321 30.0064 21.9645 30.0111C22.0969 30.0158 22.2289 29.9942 22.3529 29.9474C22.4768 29.9007 22.5903 29.8298 22.6866 29.7388C22.7829 29.6479 22.8602 29.5387 22.9139 29.4176C22.9677 29.2965 22.9969 29.166 22.9998 29.0335C23.0027 28.9011 22.9792 28.7694 22.9308 28.6461C22.8823 28.5228 22.8098 28.4103 22.7176 28.3153L14.8656 20.0002L22.7176 11.6872Z" fill="white"/>
</svg>
