<svg width="40" height="40" viewBox="0 0 40 40" fill="none" xmlns="http://www.w3.org/2000/svg">
<circle cx="20" cy="20" r="20" fill="#2B7AF1"/>
<path d="M17.2824 11.6872C17.1922 11.5918 17.1217 11.4795 17.0749 11.3567C17.028 11.234 17.0059 11.1033 17.0096 10.972C17.0133 10.8407 17.0428 10.7114 17.0965 10.5915C17.1502 10.4716 17.227 10.3635 17.3224 10.2732C17.4179 10.183 17.5302 10.1125 17.6529 10.0657C17.7757 10.0189 17.9064 9.99669 18.0377 10.0004C18.169 10.0041 18.2983 10.0337 18.4182 10.0873C18.5381 10.141 18.6462 10.2178 18.7364 10.3132L27.2364 19.3132C27.412 19.4989 27.5098 19.7447 27.5098 20.0002C27.5098 20.2558 27.412 20.5016 27.2364 20.6872L18.7364 29.6882C18.6468 29.7858 18.5387 29.8646 18.4184 29.92C18.298 29.9754 18.1679 30.0064 18.0355 30.0111C17.9031 30.0158 17.7711 29.9942 17.6471 29.9474C17.5232 29.9007 17.4097 29.8298 17.3134 29.7388C17.2171 29.6479 17.1398 29.5387 17.0861 29.4176C17.0323 29.2965 17.0031 29.166 17.0002 29.0335C16.9973 28.9011 17.0208 28.7694 17.0692 28.6461C17.1177 28.5228 17.1902 28.4103 17.2824 28.3153L25.1344 20.0002L17.2824 11.6872Z" fill="white"/>
</svg>
