<svg width="80" height="80" viewBox="0 0 80 80" fill="none" xmlns="http://www.w3.org/2000/svg">
<g clip-path="url(#clip0_1_1661)">
<path d="M72.8741 13.8142C61.8671 10.7982 50.7954 6.10215 40.8559 0.233728C40.3279 -0.0779906 39.6728 -0.0779906 39.145 0.233728C28.9187 6.27075 18.4453 10.7128 7.12582 13.8142C6.39457 14.0143 5.8877 14.679 5.8877 15.4373V32.6319C5.8877 50.3386 14.0563 62.0592 20.9091 68.7734C28.2866 76.0023 36.8803 80 40.0004 80C43.1203 80 51.714 76.0023 59.0915 68.7734C65.9441 62.0594 74.1123 50.3388 74.1123 32.6319V15.4371C74.1123 14.679 73.6054 14.0143 72.8741 13.8142ZM70.7466 32.6318C70.7466 49.1697 63.1277 60.1064 56.7359 66.3692C49.481 73.4778 41.7243 76.634 40.0004 76.634C38.2765 76.634 30.5194 73.4778 23.2644 66.3692C16.8727 60.1063 9.25347 49.1697 9.25347 32.6318V16.7146C20.0781 13.6412 30.1591 9.35199 40.0008 3.63278C49.5967 9.20027 60.1806 13.7028 70.7466 16.714V32.6318Z" fill="#2B7AF1"/>
<path d="M25.0842 16.5264C24.7436 15.6615 23.7666 15.2367 22.9016 15.5775C19.8953 16.762 16.8097 17.8523 13.7305 18.8182C13.0288 19.0386 12.5513 19.6886 12.5513 20.4239V26.9224C12.5513 27.8518 13.3049 28.6053 14.2341 28.6053C15.1633 28.6053 15.9169 27.8518 15.9169 26.9224V21.6537C18.6792 20.76 21.4386 19.7714 24.1353 18.7087C25.0002 18.3682 25.425 17.3912 25.0842 16.5264Z" fill="#2B7AF1"/>
<path d="M28.2809 16.8456C28.5067 16.8456 28.7359 16.8001 28.9557 16.7042L28.9867 16.6907C29.8381 16.3176 30.2215 15.3265 29.8484 14.4754C29.4749 13.624 28.4782 13.2389 27.6278 13.6117L27.6006 13.6234C26.7487 13.9954 26.364 14.9857 26.7361 15.8373C27.0121 16.4695 27.6317 16.8456 28.2809 16.8456Z" fill="url(#paint0_linear_1_1661)"/>
<path d="M60.0504 54.2628C59.2727 53.7546 58.2299 53.9732 57.721 54.7511C56.3343 56.8736 54.7074 58.9061 52.8849 60.7916C51.3862 62.3419 49.7621 63.7869 48.0579 65.0861C47.319 65.6495 47.1768 66.7055 47.7401 67.4447C48.0715 67.8789 48.5726 68.1074 49.0795 68.1074C49.4354 68.1074 49.794 67.995 50.0987 67.7625C51.937 66.3608 53.6885 64.8025 55.3044 63.131C57.2749 61.0928 59.0358 58.8928 60.5387 56.5921C61.0472 55.8139 60.8283 54.7711 60.0504 54.2628Z" fill="#2B7AF1"/>
<path d="M44.1495 67.7253L44.053 67.7822C43.2488 68.2479 42.9739 69.2773 43.4395 70.0815C43.7516 70.6206 44.3164 70.9215 44.8975 70.9215C45.1834 70.9215 45.4737 70.8486 45.7389 70.6947L45.8503 70.6292C46.6523 70.1595 46.9217 69.1287 46.452 68.3267C45.982 67.525 44.9511 67.2561 44.1495 67.7253Z" fill="url(#paint1_linear_1_1661)"/>
<path d="M28.5296 36.5654C27.4963 35.5319 26.1221 34.9632 24.6606 34.9632C23.199 34.9632 21.8246 35.5321 20.7909 36.5654C18.6576 38.6991 18.6576 42.171 20.7909 44.3046L30.7277 54.2411C31.7612 55.2742 33.1354 55.8431 34.5971 55.8431C36.0588 55.8431 37.433 55.2742 38.4666 54.2408L59.2105 33.4968C61.3436 31.3626 61.3436 27.8912 59.2102 25.7582C58.1767 24.7248 56.8025 24.156 55.3407 24.156C53.8789 24.156 52.5047 24.7249 51.4711 25.7582L34.5969 42.6324L28.5296 36.5654ZM53.8511 28.1382C54.2488 27.7405 54.778 27.5216 55.3408 27.5216C55.9039 27.5216 56.4327 27.7405 56.8307 28.1382C57.6517 28.9593 57.6517 30.2958 56.8303 31.1172L36.0868 51.861C35.6891 52.2586 35.1599 52.4775 34.5971 52.4775C34.0343 52.4775 33.5051 52.2586 33.1073 51.861L23.1707 41.9247C22.3493 41.1033 22.3493 39.7668 23.1704 38.9457C23.5682 38.548 24.0974 38.3288 24.6604 38.3288C25.2234 38.3288 25.7523 38.5477 26.1499 38.9454L33.4069 46.2025C33.7227 46.518 34.1505 46.6953 34.5969 46.6953C35.0433 46.6953 35.4712 46.5182 35.7866 46.2025L53.8511 28.1382Z" fill="url(#paint2_linear_1_1661)"/>
</g>
<defs>
<linearGradient id="paint0_linear_1_1661" x1="26.5942" y1="15.1575" x2="29.9917" y2="15.1437" gradientUnits="userSpaceOnUse">
<stop stop-color="#FF7A00"/>
<stop offset="1" stop-color="#FFB039"/>
</linearGradient>
<linearGradient id="paint1_linear_1_1661" x1="43.2129" y1="69.208" x2="46.6836" y2="69.1938" gradientUnits="userSpaceOnUse">
<stop stop-color="#FF7A00"/>
<stop offset="1" stop-color="#FFB039"/>
</linearGradient>
<linearGradient id="paint2_linear_1_1661" x1="19.1909" y1="39.9996" x2="60.8175" y2="39.7789" gradientUnits="userSpaceOnUse">
<stop stop-color="#FF7A00"/>
<stop offset="1" stop-color="#FFB039"/>
</linearGradient>
<clipPath id="clip0_1_1661">
<rect width="80" height="80" fill="white"/>
</clipPath>
</defs>
</svg>
