<svg width="80" height="80" viewBox="0 0 80 80" fill="none" xmlns="http://www.w3.org/2000/svg">
<g clip-path="url(#clip0_1_1717)">
<path d="M79.8458 43.6954C79.1275 36.4706 75.8998 29.6594 70.7569 24.5163C66.3618 20.1214 60.9824 17.2971 55.322 16.0413V12.0713C57.6339 11.4961 59.3523 9.40342 59.3523 6.91604C59.3523 3.98662 56.9692 1.60345 54.0398 1.60345H42.7896C39.8602 1.60345 37.477 3.98662 37.477 6.91604C37.477 9.40326 39.1955 11.496 41.5072 12.0713V16.0524C35.8642 17.3135 30.5025 20.1339 26.1199 24.5165C25.1609 25.4755 24.2765 26.4817 23.4669 27.5273C23.4277 27.5243 23.3885 27.5214 23.3485 27.5214H12.2138C11.351 27.5214 10.6513 28.2209 10.6513 29.0839C10.6513 29.9469 11.351 30.6464 12.2138 30.6464H21.3408C20.1952 32.5644 19.2714 34.5787 18.5683 36.6521H1.56252C0.699698 36.6521 0 37.3517 0 38.2147C0 39.0776 0.699698 39.7772 1.56252 39.7772H17.6853C17.235 41.7539 16.9765 43.7657 16.9098 45.7831H10.0002C9.13733 45.7831 8.43763 46.4826 8.43763 47.3456C8.43763 48.2086 9.13733 48.9081 10.0002 48.9081H16.9596C17.0915 50.9306 17.4167 52.9425 17.9353 54.914H7.81262C6.9498 54.914 6.2501 55.6135 6.2501 56.4765C6.2501 57.3395 6.9498 58.039 7.81262 58.039H18.9325C20.4653 62.0939 22.8608 65.8945 26.1199 69.1536C31.2678 74.3015 38.0861 77.53 45.3184 78.2445C46.3506 78.3464 47.3836 78.3968 48.4151 78.3968C54.5124 78.3968 60.5322 76.6323 65.6401 73.306C66.3632 72.835 66.5678 71.8671 66.0968 71.1439C65.6259 70.4208 64.6579 70.2162 63.9347 70.6872C52.7538 77.9681 37.7797 76.3938 28.3297 66.9438C17.2417 55.8559 17.2417 37.8145 28.3297 26.7263C39.4175 15.6385 57.4589 15.6385 68.547 26.7263C77.9845 36.164 79.5673 51.1253 72.3105 62.3008C71.8405 63.0246 72.0463 63.9924 72.7699 64.4622C73.494 64.9323 74.4615 64.7265 74.9313 64.0027C78.8086 58.0315 80.5539 50.8197 79.8458 43.6954ZM40.602 6.91619C40.602 5.70993 41.5833 4.72866 42.7896 4.72866H54.0398C55.246 4.72866 56.2273 5.70993 56.2273 6.91619C56.2273 8.12246 55.246 9.10373 54.0398 9.10373H53.7594H43.0697H42.7896C41.5833 9.10373 40.602 8.12231 40.602 6.91619ZM44.6323 15.5152V12.2288H52.1969V15.5096C49.685 15.2109 47.1437 15.2127 44.6323 15.5152Z" fill="#2B7AF1"/>
<path d="M69.6523 66.4855C69.2398 66.4855 68.8383 66.6527 68.5478 66.9433C68.2556 67.2339 68.0898 67.637 68.0898 68.048C68.0898 68.4589 68.2556 68.862 68.5478 69.1527C68.8383 69.4448 69.24 69.6105 69.6523 69.6105C70.0633 69.6105 70.4648 69.4448 70.757 69.1527C71.0477 68.862 71.2148 68.4589 71.2148 68.048C71.2148 67.637 71.0478 67.2339 70.757 66.9433C70.4648 66.6527 70.0631 66.4855 69.6523 66.4855Z" fill="url(#paint0_linear_1_1717)"/>
<path d="M48.4385 22.5955C35.073 22.5955 24.1992 33.4691 24.1992 46.8348C24.1992 60.2005 35.073 71.0741 48.4385 71.0741C61.804 71.0741 72.6778 60.2005 72.6778 46.8348C72.6778 33.4691 61.804 22.5955 48.4385 22.5955ZM48.4385 67.949C36.796 67.949 27.3243 58.4772 27.3243 46.8348C27.3243 35.1924 36.796 25.7206 48.4385 25.7206C60.081 25.7206 69.5527 35.1924 69.5527 46.8348C69.5527 58.4772 60.081 67.949 48.4385 67.949Z" fill="url(#paint1_linear_1_1717)"/>
<path d="M58.3224 34.7411L50.5832 42.4802C49.936 42.1602 49.208 41.9794 48.4385 41.9794C47.6688 41.9794 46.9409 42.1602 46.2937 42.4802L42.8301 39.0165C42.2198 38.4063 41.2307 38.4063 40.6202 39.0165C40.0101 39.6267 40.0101 40.6161 40.6202 41.2262L44.0839 44.6899C43.7637 45.3371 43.5831 46.0651 43.5831 46.8346C43.5831 49.5118 45.7611 51.69 48.4385 51.69C51.1158 51.69 53.2939 49.5118 53.2939 46.8346C53.2939 46.0651 53.1131 45.3371 52.7931 44.6899L60.3051 37.1779L60.5321 36.9509C61.1422 36.3407 61.1422 35.3513 60.5321 34.7411C59.9219 34.131 58.9328 34.131 58.3224 34.7411ZM48.4385 48.5651C47.4844 48.5651 46.7081 47.7888 46.7081 46.8348C46.7081 45.8807 47.4844 45.1044 48.4385 45.1044C49.3925 45.1044 50.1688 45.8807 50.1688 46.8348C50.1688 47.7888 49.3925 48.5651 48.4385 48.5651Z" fill="#2B7AF1"/>
<path d="M65.1449 45.2913H63.6973C62.8345 45.2913 62.1348 45.9909 62.1348 46.8538C62.1348 47.7168 62.8345 48.4163 63.6973 48.4163H65.1449C66.0077 48.4163 66.7074 47.7168 66.7074 46.8538C66.7074 45.9909 66.0077 45.2913 65.1449 45.2913Z" fill="#2B7AF1"/>
<path d="M33.1794 45.2532H31.7319C30.8691 45.2532 30.1694 45.9528 30.1694 46.8157C30.1694 47.6787 30.8691 48.3782 31.7319 48.3782H33.1794C34.0422 48.3782 34.7419 47.6787 34.7419 46.8157C34.7419 45.9528 34.0422 45.2532 33.1794 45.2532Z" fill="#2B7AF1"/>
<path d="M48.4575 33.1385C49.3203 33.1385 50.02 32.4389 50.02 31.576V30.1285C50.02 29.2655 49.3203 28.566 48.4575 28.566C47.5947 28.566 46.895 29.2655 46.895 30.1285V31.576C46.895 32.4389 47.5947 33.1385 48.4575 33.1385Z" fill="#2B7AF1"/>
<path d="M48.4194 60.5311C47.5566 60.5311 46.8569 61.2306 46.8569 62.0936V63.5411C46.8569 64.404 47.5566 65.1036 48.4194 65.1036C49.2822 65.1036 49.9819 64.404 49.9819 63.5411V62.0936C49.9819 61.2306 49.2822 60.5311 48.4194 60.5311Z" fill="#2B7AF1"/>
<path d="M1.5625 54.9134C1.15156 54.9134 0.748438 55.0806 0.457813 55.3712C0.167188 55.6618 0 56.065 0 56.4759C0 56.8884 0.167031 57.29 0.457813 57.5806C0.748594 57.8712 1.15156 58.0384 1.5625 58.0384C1.97344 58.0384 2.37656 57.8712 2.66703 57.5806C2.95766 57.29 3.125 56.8868 3.125 56.4759C3.125 56.065 2.95781 55.6618 2.66703 55.3712C2.37656 55.0806 1.97344 54.9134 1.5625 54.9134Z" fill="url(#paint2_linear_1_1717)"/>
</g>
<defs>
<linearGradient id="paint0_linear_1_1717" x1="68.0898" y1="68.048" x2="71.2154" y2="68.0354" gradientUnits="userSpaceOnUse">
<stop stop-color="#FF7A00"/>
<stop offset="1" stop-color="#FFB039"/>
</linearGradient>
<linearGradient id="paint1_linear_1_1717" x1="24.1992" y1="46.8348" x2="72.6868" y2="46.6391" gradientUnits="userSpaceOnUse">
<stop stop-color="#FF7A00"/>
<stop offset="1" stop-color="#FFB039"/>
</linearGradient>
<linearGradient id="paint2_linear_1_1717" x1="-2.34286e-08" y1="56.4759" x2="3.12558" y2="56.4633" gradientUnits="userSpaceOnUse">
<stop stop-color="#FF7A00"/>
<stop offset="1" stop-color="#FFB039"/>
</linearGradient>
<clipPath id="clip0_1_1717">
<rect width="80" height="80" fill="white"/>
</clipPath>
</defs>
</svg>
