<svg width="32" height="25" viewBox="0 0 32 25" fill="none" xmlns="http://www.w3.org/2000/svg">
<path d="M3.97705 6.96026C3.97705 6.41111 4.42222 5.96594 4.97137 5.96594H26.8464C27.3955 5.96594 27.8407 6.41111 27.8407 6.96026C27.8407 7.50941 27.3955 7.95458 26.8464 7.95458H4.97137C4.42222 7.95458 3.97705 7.50941 3.97705 6.96026Z" fill="#111111"/>
<path d="M3.97705 12.9261C3.97705 12.3769 4.42222 11.9318 4.97137 11.9318H26.8464C27.3955 11.9318 27.8407 12.3769 27.8407 12.9261C27.8407 13.4752 27.3955 13.9204 26.8464 13.9204H4.97137C4.42222 13.9204 3.97705 13.4752 3.97705 12.9261Z" fill="#111111"/>
<path d="M3.97705 18.892C3.97705 18.3429 4.42222 17.8977 4.97137 17.8977H26.8464C27.3955 17.8977 27.8407 18.3429 27.8407 18.892C27.8407 19.4412 27.3955 19.8863 26.8464 19.8863H4.97137C4.42222 19.8863 3.97705 19.4412 3.97705 18.892Z" fill="#111111"/>
</svg>
